<svg width="235" height="162" viewBox="0 0 235 162" fill="none" xmlns="http://www.w3.org/2000/svg">
<path opacity="0.1" fill-rule="evenodd" clip-rule="evenodd" d="M213.52 91.539C210.607 52.3655 142.35 20.8957 69.6437 23.0701C-3.06263 25.2446 70.1075 70.1504 25.2119 70.2137C-19.6836 70.277 49.268 139.097 127.35 126.57C205.432 114.044 216.433 130.713 213.52 91.539Z" fill="#02ECF1"/>
<path fill-rule="evenodd" clip-rule="evenodd" d="M131.015 109.604C130.991 109.713 130.952 109.825 130.92 109.933C130.954 109.818 130.992 109.703 131.016 109.585C131.015 109.593 131.015 109.598 131.015 109.604M130.769 110.407C130.726 110.514 130.668 110.62 130.617 110.724C130.67 110.615 130.729 110.504 130.774 110.392C130.772 110.397 130.77 110.402 130.769 110.407M130.363 111.207C130.303 111.305 130.23 111.4 130.164 111.496C130.234 111.398 130.308 111.297 130.369 111.194C130.367 111.199 130.366 111.203 130.363 111.207M129.759 112.033C129.697 112.107 129.627 112.179 129.56 112.251C129.63 112.176 129.702 112.1 129.765 112.023C129.763 112.026 129.762 112.028 129.759 112.033M129.22 112.62C129.094 112.742 128.944 112.86 128.804 112.979C128.948 112.856 129.1 112.736 129.229 112.61C129.225 112.614 129.224 112.616 129.22 112.62M128.028 113.583C127.971 113.623 127.916 113.662 127.858 113.704C127.918 113.661 127.976 113.619 128.035 113.578C128.032 113.579 128.03 113.581 128.028 113.583M131.075 109.13C131.295 106.845 129.711 104.52 126.288 102.776C119.879 99.5085 109.528 99.5085 103.165 102.772C99.995 104.399 98.4143 106.53 98.4178 108.664C98.4178 108.656 98.4155 108.649 98.4155 108.643L98.406 111.594C98.4001 113.749 100.01 115.909 103.237 117.553C103.622 117.748 104.023 117.932 104.435 118.106C104.575 118.163 104.722 118.216 104.866 118.271C105.108 118.366 105.346 118.465 105.595 118.551C105.623 118.562 105.655 118.568 105.683 118.577C106.252 118.773 106.84 118.946 107.443 119.102C107.489 119.115 107.533 119.131 107.58 119.143C107.714 119.176 107.855 119.2 107.989 119.231C108.329 119.311 108.67 119.387 109.017 119.453C109.106 119.471 109.194 119.495 109.285 119.512C109.418 119.536 109.556 119.552 109.69 119.573C109.978 119.622 110.268 119.668 110.56 119.709C110.677 119.724 110.789 119.746 110.905 119.761C111.033 119.777 111.163 119.785 111.29 119.799C111.56 119.828 111.83 119.855 112.103 119.879C112.235 119.891 112.363 119.909 112.496 119.919C112.618 119.926 112.742 119.927 112.865 119.936C113.138 119.952 113.411 119.964 113.686 119.974C113.826 119.979 113.965 119.992 114.106 119.994C114.218 119.997 114.329 119.992 114.441 119.993C114.74 119.997 115.038 119.994 115.336 119.988C115.485 119.987 115.632 119.992 115.781 119.987C115.867 119.985 115.953 119.974 116.042 119.971C116.411 119.956 116.779 119.934 117.147 119.907C117.295 119.896 117.445 119.893 117.594 119.88C117.64 119.876 117.685 119.869 117.731 119.865C118.357 119.805 118.976 119.731 119.586 119.635C119.617 119.63 119.649 119.628 119.68 119.623C119.858 119.596 120.03 119.555 120.206 119.523C120.509 119.469 120.812 119.418 121.109 119.353C121.325 119.307 121.536 119.253 121.75 119.201C122.033 119.132 122.316 119.066 122.592 118.989C122.652 118.972 122.715 118.96 122.775 118.944C122.874 118.915 122.965 118.875 123.064 118.847C123.503 118.715 123.932 118.571 124.35 118.416C124.504 118.359 124.66 118.302 124.811 118.242C125.344 118.028 125.864 117.803 126.354 117.553C126.421 117.519 126.488 117.484 126.553 117.449C126.701 117.371 126.827 117.286 126.966 117.206C127.169 117.091 127.375 116.975 127.563 116.853C127.725 116.75 127.869 116.642 128.02 116.536C128.191 116.414 128.366 116.294 128.522 116.169C128.554 116.143 128.593 116.121 128.623 116.095C128.833 115.923 129.027 115.748 129.211 115.572C129.249 115.535 129.281 115.499 129.317 115.463C129.426 115.354 129.538 115.244 129.637 115.134C129.68 115.085 129.709 115.034 129.75 114.986C129.89 114.819 130.014 114.652 130.133 114.484C130.183 114.411 130.249 114.343 130.295 114.27C130.317 114.234 130.33 114.197 130.353 114.161C130.444 114.012 130.518 113.861 130.592 113.71C130.636 113.622 130.694 113.537 130.73 113.449C130.743 113.42 130.747 113.391 130.759 113.362C130.818 113.218 130.858 113.071 130.9 112.925C130.928 112.828 130.972 112.735 130.995 112.638C131 112.612 130.998 112.586 131.005 112.561C131.037 112.406 131.049 112.253 131.064 112.1C131.074 112.002 131.098 111.905 131.102 111.809C131.103 111.769 131.104 111.728 131.104 111.689C131.104 111.686 131.104 111.685 131.104 111.682C131.107 110.698 131.11 109.713 131.113 108.729C131.113 108.863 131.088 108.996 131.075 109.13" fill="#250F8A"/>
<mask id="mask0_41_9" style="mask-type:alpha" maskUnits="userSpaceOnUse" x="98" y="108" width="33" height="12">
<path fill-rule="evenodd" clip-rule="evenodd" d="M98.2276 111.048C98.2206 113.219 99.8028 115.392 102.97 117.049V117.049C109.259 120.338 119.423 120.338 125.67 117.049V117.049C128.773 115.416 130.327 113.278 130.333 111.136V111.136C130.335 110.145 130.34 109.154 130.342 108.162V108.162C130.335 110.303 128.782 112.443 125.679 114.074V114.074C119.431 117.363 109.267 117.363 102.98 114.074V114.074C99.8109 112.419 98.2299 110.245 98.2357 108.076V108.076" fill="white"/>
</mask>
<g mask="url(#mask0_41_9)">
<path fill-rule="evenodd" clip-rule="evenodd" d="M130.342 108.166L130.333 111.141C130.333 111.182 130.332 111.224 130.331 111.267L130.341 108.294C130.341 108.251 130.342 108.208 130.342 108.166" fill="#872D24"/>
</g>
<mask id="mask1_41_9" style="mask-type:alpha" maskUnits="userSpaceOnUse" x="98" y="108" width="33" height="12">
<path fill-rule="evenodd" clip-rule="evenodd" d="M98.2276 111.048C98.2206 113.219 99.8028 115.392 102.97 117.049V117.049C109.259 120.338 119.423 120.338 125.67 117.049V117.049C128.773 115.416 130.327 113.278 130.333 111.136V111.136C130.335 110.145 130.34 109.154 130.342 108.162V108.162C130.335 110.303 128.782 112.443 125.679 114.074V114.074C119.431 117.363 109.267 117.363 102.98 114.074V114.074C99.8109 112.419 98.2299 110.245 98.2357 108.076V108.076" fill="white"/>
</mask>
<g mask="url(#mask1_41_9)">
<path fill-rule="evenodd" clip-rule="evenodd" d="M130.341 108.291L130.331 111.264C130.322 111.543 130.287 111.821 130.226 112.099L130.235 109.124C130.296 108.848 130.331 108.569 130.341 108.291" fill="#250F8A"/>
</g>
<path fill-rule="evenodd" clip-rule="evenodd" d="M130.235 109.124L130.226 112.099C130.164 112.373 130.078 112.646 129.966 112.917L129.976 109.942C130.087 109.673 130.174 109.4 130.235 109.124" fill="#250F8A"/>
<path fill-rule="evenodd" clip-rule="evenodd" d="M129.976 109.943L129.966 112.917C129.851 113.197 129.708 113.472 129.539 113.743L129.548 110.769C129.717 110.497 129.86 110.221 129.976 109.943" fill="#250F8A"/>
<path fill-rule="evenodd" clip-rule="evenodd" d="M129.548 110.769L129.539 113.744C129.355 114.038 129.139 114.328 128.893 114.612L128.902 111.639C129.149 111.354 129.364 111.065 129.548 110.769" fill="#250F8A"/>
<path fill-rule="evenodd" clip-rule="evenodd" d="M128.902 111.639L128.892 114.612C128.604 114.942 128.273 115.268 127.897 115.581L127.907 112.607C128.282 112.294 128.613 111.97 128.902 111.639" fill="#250F8A"/>
<path fill-rule="evenodd" clip-rule="evenodd" d="M127.906 112.607L127.898 115.581C127.322 116.063 126.645 116.519 125.865 116.945L125.875 113.971C126.653 113.546 127.331 113.089 127.906 112.607" fill="#250F8A"/>
<path fill-rule="evenodd" clip-rule="evenodd" d="M125.874 113.97L125.865 116.945C125.801 116.979 125.735 117.014 125.669 117.049C124.599 117.613 123.414 118.079 122.155 118.45L122.163 115.476C123.423 115.104 124.609 114.638 125.678 114.074C125.746 114.04 125.809 114.005 125.874 113.97" fill="#250F8A"/>
<path fill-rule="evenodd" clip-rule="evenodd" d="M122.163 115.476L122.154 118.45C121.18 118.735 120.161 118.964 119.115 119.134L119.123 116.161C120.17 115.99 121.189 115.761 122.163 115.476" fill="#250F8A"/>
<path fill-rule="evenodd" clip-rule="evenodd" d="M119.124 116.161L119.115 119.135C118.442 119.244 117.758 119.331 117.068 119.394L117.076 116.419C117.767 116.358 118.452 116.271 119.124 116.161" fill="#250F8A"/>
<path fill-rule="evenodd" clip-rule="evenodd" d="M117.076 116.418L117.068 119.393C116.477 119.445 115.883 119.481 115.288 119.5L115.296 116.527C115.893 116.508 116.486 116.471 117.076 116.418" fill="#250F8A"/>
<path fill-rule="evenodd" clip-rule="evenodd" d="M115.296 116.527L115.287 119.5C114.739 119.518 114.19 119.52 113.642 119.507L113.651 116.534C114.199 116.547 114.748 116.544 115.296 116.527" fill="#250F8A"/>
<path fill-rule="evenodd" clip-rule="evenodd" d="M113.652 116.534L113.642 119.507C113.114 119.495 112.586 119.469 112.061 119.432L112.071 116.457C112.595 116.496 113.123 116.521 113.652 116.534" fill="#250F8A"/>
<path fill-rule="evenodd" clip-rule="evenodd" d="M112.071 116.457L112.061 119.432C111.538 119.392 111.017 119.339 110.5 119.273L110.509 116.299C111.026 116.365 111.547 116.418 112.071 116.457" fill="#250F8A"/>
<path fill-rule="evenodd" clip-rule="evenodd" d="M110.51 116.298L110.501 119.272C109.964 119.203 109.433 119.12 108.909 119.022L108.917 116.049C109.442 116.146 109.972 116.229 110.51 116.298" fill="#250F8A"/>
<path fill-rule="evenodd" clip-rule="evenodd" d="M108.918 116.048L108.908 119.021C108.341 118.915 107.783 118.791 107.235 118.65L107.244 115.677C107.792 115.818 108.35 115.94 108.918 116.048" fill="#250F8A"/>
<path fill-rule="evenodd" clip-rule="evenodd" d="M107.244 115.677L107.234 118.651C106.566 118.478 105.914 118.278 105.286 118.055L105.294 115.081C105.923 115.305 106.574 115.505 107.244 115.677" fill="#250F8A"/>
<path fill-rule="evenodd" clip-rule="evenodd" d="M105.295 115.08L105.285 118.054C104.471 117.763 103.695 117.428 102.97 117.049C99.802 115.393 98.221 113.219 98.2268 111.047L98.236 108.075C98.2291 110.245 99.8113 112.419 102.979 114.074C103.704 114.453 104.479 114.789 105.295 115.08" fill="#250F8A"/>
<path fill-rule="evenodd" clip-rule="evenodd" d="M121.677 112.502H128.747C131.78 109.369 130.766 105.448 125.692 102.831C122.192 101.026 117.504 100.222 112.949 100.412L106.827 104.842L121.677 112.502Z" fill="#02ECF1"/>
<path fill-rule="evenodd" clip-rule="evenodd" d="M121.677 112.503L106.827 104.842L112.949 100.412C109.262 100.566 105.663 101.367 102.851 102.827C96.567 106.092 96.6008 111.384 102.933 114.651C109.257 117.914 119.482 117.914 125.766 114.651C127.012 114.005 127.998 113.276 128.747 112.503H121.677Z" fill="#02ECF1"/>
<path fill-rule="evenodd" clip-rule="evenodd" d="M121.783 79.0489L123.925 77.9357L123.819 111.39L121.678 112.502L121.783 79.0489Z" fill="#4F34CE"/>
<path fill-rule="evenodd" clip-rule="evenodd" d="M106.934 71.3851L109.075 70.2729L123.926 77.9352L121.783 79.0484L106.934 71.3851Z" fill="#263543"/>
<path fill-rule="evenodd" clip-rule="evenodd" d="M121.783 79.0488L121.678 112.502L106.827 104.842L106.933 71.3855L121.783 79.0488Z" fill="#250F8A"/>
<path fill-rule="evenodd" clip-rule="evenodd" d="M66.6487 17.5999C66.6533 17.5999 66.658 17.5988 66.6615 17.5978C66.5729 17.6155 66.4972 17.653 66.4145 17.679C66.4925 17.6551 66.5648 17.6165 66.6487 17.5999M68.0131 17.7019C68.0155 17.7019 68.0166 17.703 68.0178 17.703C67.9362 17.679 67.8628 17.6738 67.7824 17.6572C67.8605 17.6738 67.9339 17.679 68.0131 17.7019M67.307 17.5675H67.3187C67.2255 17.5612 67.1416 17.5769 67.053 17.5779C67.1381 17.5769 67.2173 17.5612 67.307 17.5675M163.361 120.418C163.387 120.363 163.405 120.296 163.427 120.237C163.392 120.328 163.369 120.433 163.325 120.515C163.341 120.487 163.347 120.449 163.361 120.418M163.171 120.731C163.105 120.824 163.048 120.927 162.971 121.005C163.048 120.927 163.105 120.824 163.171 120.731M167.345 68.8391C167.335 68.6933 167.319 68.5465 167.296 68.3976C167.292 68.3705 167.285 68.3445 167.281 68.3174C167.276 68.2966 167.271 68.2737 167.268 68.2518C167.254 68.1799 167.243 68.1091 167.227 68.0383C167.202 67.9321 167.176 67.8238 167.144 67.7197C167.119 67.6249 167.088 67.5312 167.057 67.4375C167.057 67.4364 167.056 67.4333 167.056 67.4322L167.052 67.4229C167.022 67.3302 166.988 67.2386 166.952 67.1459C166.917 67.0553 166.88 66.9657 166.841 66.8762C166.803 66.7876 166.762 66.7002 166.72 66.6127C166.715 66.6044 166.712 66.596 166.707 66.5867C166.704 66.5815 166.7 66.5752 166.698 66.569C166.662 66.4961 166.626 66.4242 166.588 66.3524C166.542 66.2649 166.494 66.1785 166.445 66.0931C166.394 66.0046 166.341 65.9171 166.287 65.8306C166.274 65.8109 166.259 65.79 166.246 65.7692C166.238 65.7567 166.229 65.7442 166.221 65.7328C166.185 65.6765 166.149 65.6193 166.111 65.5641C166.048 65.4714 165.981 65.3797 165.913 65.2881C165.839 65.1902 165.763 65.0923 165.685 64.9976C165.682 64.9944 165.678 64.9903 165.675 64.9861C165.668 64.9767 165.659 64.9674 165.65 64.958C165.571 64.8622 165.492 64.7685 165.408 64.6768C165.288 64.5456 165.164 64.4186 165.037 64.2957C165.034 64.2936 165.03 64.2905 165.027 64.2884C164.868 64.1364 164.7 64.0052 164.531 63.8719C164.454 63.8073 164.38 63.7365 164.3 63.6771C164.047 63.4928 163.786 63.3293 163.518 63.1919L72.4002 16.1769C72.3361 16.1446 72.2744 16.1144 72.2115 16.0853C72.0623 16.0155 71.9143 15.9551 71.7698 15.9041C71.7302 15.8905 71.6918 15.8822 71.6522 15.8697C71.6288 15.8614 71.6055 15.8551 71.5822 15.8468C71.5368 15.8353 71.4914 15.8176 71.4471 15.8062C71.3539 15.7843 71.2618 15.7635 71.1721 15.7489C71.0894 15.7343 71.0078 15.7229 70.9286 15.7156C70.9192 15.7145 70.9099 15.7145 70.8994 15.7135H70.8773C70.819 15.7093 70.7619 15.7052 70.7048 15.7052C70.6349 15.7041 70.565 15.7062 70.4963 15.7104C70.431 15.7135 70.3634 15.7208 70.2993 15.7322C70.2807 15.7343 70.2644 15.7385 70.2457 15.7426C70.2364 15.7447 70.2271 15.7458 70.2189 15.7479C70.1828 15.7551 70.1455 15.7593 70.1106 15.7676C70.0476 15.7843 69.9871 15.801 69.9276 15.8218C69.8682 15.8416 69.8088 15.8655 69.7517 15.8905C69.7202 15.9051 69.6899 15.9207 69.6596 15.9353C69.0654 16.2446 68.4699 16.5528 67.8757 16.8631C67.2803 17.1724 66.686 17.4817 66.0906 17.7899C66.0929 17.7879 66.0952 17.7879 66.0976 17.7868C65.4043 18.143 64.972 18.9084 64.9685 19.9976L64.8158 68.1518C64.8112 69.7034 65.6827 71.4841 66.947 72.7838C67.462 73.3138 68.0365 73.7741 68.6529 74.0907L159.771 121.107C160.331 121.395 160.86 121.539 161.341 121.565C161.902 121.596 162.382 121.446 162.763 121.158C162.679 121.221 162.603 121.297 162.509 121.345C162.687 121.251 162.867 121.16 163.045 121.067C163.099 121.039 163.17 121.003 163.223 120.975C163.7 120.728 164.175 120.48 164.651 120.233C165.068 120.017 165.484 119.801 165.901 119.584C165.954 119.556 166.026 119.519 166.08 119.49C166.77 119.132 167.198 118.37 167.201 117.285L167.354 69.1297C167.354 69.0338 167.35 68.937 167.345 68.8391" fill="#250F8A"/>
<mask id="mask2_41_9" style="mask-type:alpha" maskUnits="userSpaceOnUse" x="65" y="15" width="8" height="4">
<path fill-rule="evenodd" clip-rule="evenodd" d="M69.4216 15.9305C68.8205 16.2431 68.2182 16.5547 67.6159 16.8652V16.8652C67.0137 17.1758 66.4138 17.4873 65.8103 17.7979V17.7979C66.5175 17.4317 67.4969 17.4842 68.5812 18.0412V18.0412L72.1925 16.175C71.5619 15.8508 70.9679 15.6976 70.4411 15.6976V15.6976C70.0616 15.6976 69.7174 15.7774 69.4216 15.9305" fill="white"/>
</mask>
<g mask="url(#mask2_41_9)">
<path fill-rule="evenodd" clip-rule="evenodd" d="M65.8105 17.7979L69.4206 15.9306C69.4513 15.9159 69.4819 15.9002 69.5137 15.8876L65.9025 17.7539C65.8707 17.7685 65.84 17.7822 65.8105 17.7979" fill="#1A242E"/>
</g>
<mask id="mask3_41_9" style="mask-type:alpha" maskUnits="userSpaceOnUse" x="65" y="15" width="8" height="4">
<path fill-rule="evenodd" clip-rule="evenodd" d="M69.4216 15.9305C68.8205 16.2431 68.2182 16.5547 67.6159 16.8652V16.8652C67.0137 17.1758 66.4138 17.4873 65.8103 17.7979V17.7979C66.5175 17.4317 67.4969 17.4842 68.5812 18.0412V18.0412L72.1925 16.175C71.5619 15.8508 70.9679 15.6976 70.4411 15.6976V15.6976C70.0616 15.6976 69.7174 15.7774 69.4216 15.9305" fill="white"/>
</mask>
<g mask="url(#mask3_41_9)">
<path fill-rule="evenodd" clip-rule="evenodd" d="M65.902 17.7586L69.5132 15.8923C69.571 15.864 69.6311 15.842 69.6924 15.8199L66.0811 17.6894C66.021 17.7093 65.9609 17.7334 65.902 17.7586" fill="#1B252F"/>
</g>
<mask id="mask4_41_9" style="mask-type:alpha" maskUnits="userSpaceOnUse" x="65" y="15" width="8" height="4">
<path fill-rule="evenodd" clip-rule="evenodd" d="M69.4216 15.9305C68.8205 16.2431 68.2182 16.5547 67.6159 16.8652V16.8652C67.0137 17.1758 66.4138 17.4873 65.8103 17.7979V17.7979C66.5175 17.4317 67.4969 17.4842 68.5812 18.0412V18.0412L72.1925 16.175C71.5619 15.8508 70.9679 15.6976 70.4411 15.6976V15.6976C70.0616 15.6976 69.7174 15.7774 69.4216 15.9305" fill="white"/>
</mask>
<g mask="url(#mask4_41_9)">
<path fill-rule="evenodd" clip-rule="evenodd" d="M66.0816 17.6868L69.6917 15.8184C69.7518 15.7974 69.8143 15.7806 69.8767 15.7659L66.2655 17.6333C66.203 17.648 66.1417 17.6658 66.0816 17.6868" fill="#1C2631"/>
</g>
<mask id="mask5_41_9" style="mask-type:alpha" maskUnits="userSpaceOnUse" x="65" y="15" width="8" height="4">
<path fill-rule="evenodd" clip-rule="evenodd" d="M69.4216 15.9305C68.8205 16.2431 68.2182 16.5547 67.6159 16.8652V16.8652C67.0137 17.1758 66.4138 17.4873 65.8103 17.7979V17.7979C66.5175 17.4317 67.4969 17.4842 68.5812 18.0412V18.0412L72.1925 16.175C71.5619 15.8508 70.9679 15.6976 70.4411 15.6976V15.6976C70.0616 15.6976 69.7174 15.7774 69.4216 15.9305" fill="white"/>
</mask>
<g mask="url(#mask5_41_9)">
<path fill-rule="evenodd" clip-rule="evenodd" d="M66.2657 17.6319L69.8758 15.7646C69.9394 15.7478 70.0031 15.7352 70.0679 15.7268L66.4566 17.5941C66.3918 17.6046 66.3282 17.6162 66.2657 17.6319" fill="#1D2732"/>
</g>
<mask id="mask6_41_9" style="mask-type:alpha" maskUnits="userSpaceOnUse" x="65" y="15" width="8" height="4">
<path fill-rule="evenodd" clip-rule="evenodd" d="M69.4216 15.9305C68.8205 16.2431 68.2182 16.5547 67.6159 16.8652V16.8652C67.0137 17.1758 66.4138 17.4873 65.8103 17.7979V17.7979C66.5175 17.4317 67.4969 17.4842 68.5812 18.0412V18.0412L72.1925 16.175C71.5619 15.8508 70.9679 15.6976 70.4411 15.6976V15.6976C70.0616 15.6976 69.7174 15.7774 69.4216 15.9305" fill="white"/>
</mask>
<g mask="url(#mask6_41_9)">
<path fill-rule="evenodd" clip-rule="evenodd" d="M66.4562 17.5931L70.0675 15.7258C70.1323 15.7163 70.2007 15.709 70.2667 15.7037L66.6566 17.5711C66.5882 17.5753 66.5222 17.5837 66.4562 17.5931" fill="#1D2934"/>
</g>
<mask id="mask7_41_9" style="mask-type:alpha" maskUnits="userSpaceOnUse" x="65" y="15" width="8" height="4">
<path fill-rule="evenodd" clip-rule="evenodd" d="M69.4216 15.9305C68.8205 16.2431 68.2182 16.5547 67.6159 16.8652V16.8652C67.0137 17.1758 66.4138 17.4873 65.8103 17.7979V17.7979C66.5175 17.4317 67.4969 17.4842 68.5812 18.0412V18.0412L72.1925 16.175C71.5619 15.8508 70.9679 15.6976 70.4411 15.6976V15.6976C70.0616 15.6976 69.7174 15.7774 69.4216 15.9305" fill="white"/>
</mask>
<g mask="url(#mask7_41_9)">
<path fill-rule="evenodd" clip-rule="evenodd" d="M66.657 17.5713L70.2671 15.704C70.3367 15.6987 70.4074 15.6977 70.4781 15.6977L66.868 17.565C66.7961 17.565 66.7266 17.5661 66.657 17.5713" fill="#1E2A35"/>
</g>
<mask id="mask8_41_9" style="mask-type:alpha" maskUnits="userSpaceOnUse" x="65" y="15" width="8" height="4">
<path fill-rule="evenodd" clip-rule="evenodd" d="M69.4216 15.9305C68.8205 16.2431 68.2182 16.5547 67.6159 16.8652V16.8652C67.0137 17.1758 66.4138 17.4873 65.8103 17.7979V17.7979C66.5175 17.4317 67.4969 17.4842 68.5812 18.0412V18.0412L72.1925 16.175C71.5619 15.8508 70.9679 15.6976 70.4411 15.6976V15.6976C70.0616 15.6976 69.7174 15.7774 69.4216 15.9305" fill="white"/>
</mask>
<g mask="url(#mask8_41_9)">
<path fill-rule="evenodd" clip-rule="evenodd" d="M66.8677 17.5652L70.4779 15.6978C70.5521 15.6989 70.6275 15.7041 70.7041 15.7094L67.0929 17.5777C67.0162 17.5714 66.942 17.5662 66.8677 17.5652" fill="#1F2B37"/>
</g>
<mask id="mask9_41_9" style="mask-type:alpha" maskUnits="userSpaceOnUse" x="65" y="15" width="8" height="4">
<path fill-rule="evenodd" clip-rule="evenodd" d="M69.4216 15.9305C68.8205 16.2431 68.2182 16.5547 67.6159 16.8652V16.8652C67.0137 17.1758 66.4138 17.4873 65.8103 17.7979V17.7979C66.5175 17.4317 67.4969 17.4842 68.5812 18.0412V18.0412L72.1925 16.175C71.5619 15.8508 70.9679 15.6976 70.4411 15.6976V15.6976C70.0616 15.6976 69.7174 15.7774 69.4216 15.9305" fill="white"/>
</mask>
<g mask="url(#mask9_41_9)">
<path fill-rule="evenodd" clip-rule="evenodd" d="M67.0933 17.5781L70.7034 15.7108C70.7847 15.7181 70.8672 15.7286 70.9497 15.7422L67.3385 17.6096C67.256 17.597 67.1735 17.5854 67.0933 17.5781" fill="#202C38"/>
</g>
<mask id="mask10_41_9" style="mask-type:alpha" maskUnits="userSpaceOnUse" x="65" y="15" width="8" height="4">
<path fill-rule="evenodd" clip-rule="evenodd" d="M69.4216 15.9305C68.8205 16.2431 68.2182 16.5547 67.6159 16.8652V16.8652C67.0137 17.1758 66.4138 17.4873 65.8103 17.7979V17.7979C66.5175 17.4317 67.4969 17.4842 68.5812 18.0412V18.0412L72.1925 16.175C71.5619 15.8508 70.9679 15.6976 70.4411 15.6976V15.6976C70.0616 15.6976 69.7174 15.7774 69.4216 15.9305" fill="white"/>
</mask>
<g mask="url(#mask10_41_9)">
<path fill-rule="evenodd" clip-rule="evenodd" d="M67.3391 17.6111L70.9503 15.7438C71.0422 15.7595 71.1342 15.7794 71.2285 15.8025L67.6172 17.6709C67.5229 17.6468 67.4298 17.6289 67.3391 17.6111" fill="#212D3A"/>
</g>
<path fill-rule="evenodd" clip-rule="evenodd" d="M69.4216 15.9305C68.8205 16.2431 68.2182 16.5547 67.6159 16.8652V16.8652C67.0137 17.1758 66.4138 17.4873 65.8103 17.7979V17.7979C66.5175 17.4317 67.4969 17.4842 68.5812 18.0412V18.0412L72.1925 16.175C71.5619 15.8508 70.9679 15.6976 70.4411 15.6976V15.6976C70.0616 15.6976 69.7174 15.7774 69.4216 15.9305" fill="#250F8A"/>
<mask id="mask11_41_9" style="mask-type:alpha" maskUnits="userSpaceOnUse" x="65" y="15" width="8" height="4">
<path fill-rule="evenodd" clip-rule="evenodd" d="M69.4216 15.9305C68.8205 16.2431 68.2182 16.5547 67.6159 16.8652V16.8652C67.0137 17.1758 66.4138 17.4873 65.8103 17.7979V17.7979C66.5175 17.4317 67.4969 17.4842 68.5812 18.0412V18.0412L72.1925 16.175C71.5619 15.8508 70.9679 15.6976 70.4411 15.6976V15.6976C70.0616 15.6976 69.7174 15.7774 69.4216 15.9305" fill="white"/>
</mask>
<g mask="url(#mask11_41_9)">
<path fill-rule="evenodd" clip-rule="evenodd" d="M67.6169 17.6731L71.2282 15.8058C71.3355 15.8331 71.4439 15.8656 71.5547 15.9033L67.9434 17.7717C67.8338 17.735 67.7242 17.7004 67.6169 17.6731" fill="#250F8A"/>
</g>
<path fill-rule="evenodd" clip-rule="evenodd" d="M67.9439 17.7672L71.554 15.8999C71.7013 15.9503 71.8498 16.0101 72.0019 16.0824L68.3906 17.9498C68.2397 17.8784 68.0912 17.8176 67.9439 17.7672" fill="#250F8A"/>
<path fill-rule="evenodd" clip-rule="evenodd" d="M68.3911 17.9494L72.0012 16.0821C72.066 16.1104 72.1273 16.1408 72.1933 16.1755L68.5809 18.0417C68.5172 18.0103 68.4548 17.9767 68.3911 17.9494" fill="#250F8A"/>
<mask id="mask12_41_9" style="mask-type:alpha" maskUnits="userSpaceOnUse" x="162" y="117" width="6" height="5">
<path fill-rule="evenodd" clip-rule="evenodd" d="M163.398 118.988C163.397 120.135 162.942 120.942 162.208 121.324V121.324C162.397 121.226 162.588 121.126 162.776 121.028V121.028C162.834 120.999 162.91 120.96 162.967 120.929V120.929C163.473 120.669 163.978 120.407 164.484 120.145V120.145C164.926 119.917 165.369 119.689 165.81 119.46V119.46C165.867 119.431 165.943 119.393 166.001 119.362V119.362C166.734 118.982 167.188 118.175 167.191 117.027V117.027" fill="white"/>
</mask>
<g mask="url(#mask12_41_9)">
<path fill-rule="evenodd" clip-rule="evenodd" d="M163.399 118.989L167.191 117.027C167.189 118.176 166.733 118.982 166.001 119.362L162.209 121.323C162.941 120.943 163.397 120.135 163.399 118.989" fill="#250F8A"/>
</g>
<path fill-rule="evenodd" clip-rule="evenodd" d="M163.785 70.8257L167.353 68.977L167.202 117.003L163.632 118.853L163.785 70.8257Z" fill="#250F8A"/>
<path fill-rule="evenodd" clip-rule="evenodd" d="M68.8695 18.0146L72.4383 16.167L163.52 63.0556L159.95 64.9042L68.8695 18.0146Z" fill="#250F8A"/>
<mask id="mask13_41_9" style="mask-type:alpha" maskUnits="userSpaceOnUse" x="160" y="62" width="8" height="9">
<path fill-rule="evenodd" clip-rule="evenodd" d="M160.13 64.6188C162.206 65.7245 163.878 68.3975 163.872 70.5995V70.5995L167.354 68.7322C167.36 66.5302 165.688 63.8572 163.612 62.7515V62.7515" fill="white"/>
</mask>
<g mask="url(#mask13_41_9)">
<path fill-rule="evenodd" clip-rule="evenodd" d="M160.13 64.6186L163.612 62.7512C164.14 63.0313 164.64 63.4132 165.094 63.8632L161.612 65.7306C161.158 65.2805 160.657 64.8997 160.13 64.6186" fill="#23313E"/>
</g>
<mask id="mask14_41_9" style="mask-type:alpha" maskUnits="userSpaceOnUse" x="160" y="62" width="8" height="9">
<path fill-rule="evenodd" clip-rule="evenodd" d="M160.13 64.6188C162.206 65.7245 163.878 68.3975 163.872 70.5995V70.5995L167.354 68.7322C167.36 66.5302 165.688 63.8572 163.612 62.7515V62.7515" fill="white"/>
</mask>
<g mask="url(#mask14_41_9)">
<path fill-rule="evenodd" clip-rule="evenodd" d="M161.612 65.7303L165.093 63.864C165.218 63.9857 165.339 64.1137 165.456 64.2469L161.974 66.1143C161.858 65.981 161.736 65.853 161.612 65.7303" fill="#22303D"/>
</g>
<mask id="mask15_41_9" style="mask-type:alpha" maskUnits="userSpaceOnUse" x="160" y="62" width="8" height="9">
<path fill-rule="evenodd" clip-rule="evenodd" d="M160.13 64.6188C162.206 65.7245 163.878 68.3975 163.872 70.5995V70.5995L167.354 68.7322C167.36 66.5302 165.688 63.8572 163.612 62.7515V62.7515" fill="white"/>
</mask>
<g mask="url(#mask15_41_9)">
<path fill-rule="evenodd" clip-rule="evenodd" d="M161.974 66.1142L165.455 64.2469C165.55 64.3518 165.639 64.4598 165.727 64.57L162.245 66.4384C162.157 66.3272 162.067 66.2191 161.974 66.1142" fill="#222E3B"/>
</g>
<mask id="mask16_41_9" style="mask-type:alpha" maskUnits="userSpaceOnUse" x="160" y="62" width="8" height="9">
<path fill-rule="evenodd" clip-rule="evenodd" d="M160.13 64.6188C162.206 65.7245 163.878 68.3975 163.872 70.5995V70.5995L167.354 68.7322C167.36 66.5302 165.688 63.8572 163.612 62.7515V62.7515" fill="white"/>
</mask>
<g mask="url(#mask16_41_9)">
<path fill-rule="evenodd" clip-rule="evenodd" d="M162.244 66.438L165.727 64.5707C165.803 64.6661 165.877 64.7627 165.948 64.8634L162.467 66.7307C162.396 66.6321 162.321 66.5335 162.244 66.438" fill="#212D3A"/>
</g>
<mask id="mask17_41_9" style="mask-type:alpha" maskUnits="userSpaceOnUse" x="160" y="62" width="8" height="9">
<path fill-rule="evenodd" clip-rule="evenodd" d="M160.13 64.6188C162.206 65.7245 163.878 68.3975 163.872 70.5995V70.5995L167.354 68.7322C167.36 66.5302 165.688 63.8572 163.612 62.7515V62.7515" fill="white"/>
</mask>
<g mask="url(#mask17_41_9)">
<path fill-rule="evenodd" clip-rule="evenodd" d="M162.467 66.7309L165.949 64.8635C166.015 64.9548 166.079 65.0471 166.141 65.1394L162.66 67.0078C162.597 66.9145 162.533 66.8221 162.467 66.7309" fill="#202C38"/>
</g>
<mask id="mask18_41_9" style="mask-type:alpha" maskUnits="userSpaceOnUse" x="160" y="62" width="8" height="9">
<path fill-rule="evenodd" clip-rule="evenodd" d="M160.13 64.6188C162.206 65.7245 163.878 68.3975 163.872 70.5995V70.5995L167.354 68.7322C167.36 66.5302 165.688 63.8572 163.612 62.7515V62.7515" fill="white"/>
</mask>
<g mask="url(#mask18_41_9)">
<path fill-rule="evenodd" clip-rule="evenodd" d="M162.659 67.0076L166.14 65.1403C166.201 65.2294 166.258 65.3186 166.313 65.4099L162.83 67.2772C162.775 67.1859 162.718 67.0968 162.659 67.0076" fill="#1F2B37"/>
</g>
<mask id="mask19_41_9" style="mask-type:alpha" maskUnits="userSpaceOnUse" x="160" y="62" width="8" height="9">
<path fill-rule="evenodd" clip-rule="evenodd" d="M160.13 64.6188C162.206 65.7245 163.878 68.3975 163.872 70.5995V70.5995L167.354 68.7322C167.36 66.5302 165.688 63.8572 163.612 62.7515V62.7515" fill="white"/>
</mask>
<g mask="url(#mask19_41_9)">
<path fill-rule="evenodd" clip-rule="evenodd" d="M162.83 67.2773L166.313 65.4099C166.366 65.497 166.417 65.5851 166.467 65.6743L162.985 67.5406C162.936 67.4525 162.884 67.3633 162.83 67.2773" fill="#1E2A35"/>
</g>
<mask id="mask20_41_9" style="mask-type:alpha" maskUnits="userSpaceOnUse" x="160" y="62" width="8" height="9">
<path fill-rule="evenodd" clip-rule="evenodd" d="M160.13 64.6188C162.206 65.7245 163.878 68.3975 163.872 70.5995V70.5995L167.354 68.7322C167.36 66.5302 165.688 63.8572 163.612 62.7515V62.7515" fill="white"/>
</mask>
<g mask="url(#mask20_41_9)">
<path fill-rule="evenodd" clip-rule="evenodd" d="M162.985 67.5405L166.467 65.6742C166.515 65.7602 166.562 65.8462 166.607 65.9344L163.126 67.8027C163.08 67.7136 163.034 67.6265 162.985 67.5405" fill="#1D2934"/>
</g>
<mask id="mask21_41_9" style="mask-type:alpha" maskUnits="userSpaceOnUse" x="160" y="62" width="8" height="9">
<path fill-rule="evenodd" clip-rule="evenodd" d="M160.13 64.6188C162.206 65.7245 163.878 68.3975 163.872 70.5995V70.5995L167.354 68.7322C167.36 66.5302 165.688 63.8572 163.612 62.7515V62.7515" fill="white"/>
</mask>
<g mask="url(#mask21_41_9)">
<path fill-rule="evenodd" clip-rule="evenodd" d="M163.125 67.8026L166.606 65.9342C166.653 66.0213 166.695 66.1094 166.736 66.1965L163.253 68.0638C163.213 67.9767 163.169 67.8897 163.125 67.8026" fill="#1D2732"/>
</g>
<mask id="mask22_41_9" style="mask-type:alpha" maskUnits="userSpaceOnUse" x="160" y="62" width="8" height="9">
<path fill-rule="evenodd" clip-rule="evenodd" d="M160.13 64.6188C162.206 65.7245 163.878 68.3975 163.872 70.5995V70.5995L167.354 68.7322C167.36 66.5302 165.688 63.8572 163.612 62.7515V62.7515" fill="white"/>
</mask>
<g mask="url(#mask22_41_9)">
<path fill-rule="evenodd" clip-rule="evenodd" d="M163.254 68.0638L166.735 66.1965C166.777 66.2846 166.817 66.3738 166.854 66.4629L163.371 68.3313C163.335 68.2411 163.295 68.153 163.254 68.0638" fill="#1C2631"/>
</g>
<mask id="mask23_41_9" style="mask-type:alpha" maskUnits="userSpaceOnUse" x="160" y="62" width="8" height="9">
<path fill-rule="evenodd" clip-rule="evenodd" d="M160.13 64.6188C162.206 65.7245 163.878 68.3975 163.872 70.5995V70.5995L167.354 68.7322C167.36 66.5302 165.688 63.8572 163.612 62.7515V62.7515" fill="white"/>
</mask>
<g mask="url(#mask23_41_9)">
<path fill-rule="evenodd" clip-rule="evenodd" d="M163.371 68.3312L166.854 66.4628C166.892 66.553 166.927 66.6433 166.962 66.7335L163.48 68.6019C163.446 68.5106 163.411 68.4204 163.371 68.3312" fill="#1B252F"/>
</g>
<mask id="mask24_41_9" style="mask-type:alpha" maskUnits="userSpaceOnUse" x="160" y="62" width="8" height="9">
<path fill-rule="evenodd" clip-rule="evenodd" d="M160.13 64.6188C162.206 65.7245 163.878 68.3975 163.872 70.5995V70.5995L167.354 68.7322C167.36 66.5302 165.688 63.8572 163.612 62.7515V62.7515" fill="white"/>
</mask>
<g mask="url(#mask24_41_9)">
<path fill-rule="evenodd" clip-rule="evenodd" d="M163.48 68.602L166.962 66.7336C166.997 66.8269 167.03 66.9203 167.06 67.0137L163.577 68.8821C163.548 68.7876 163.515 68.6943 163.48 68.602" fill="#1A242E"/>
</g>
<mask id="mask25_41_9" style="mask-type:alpha" maskUnits="userSpaceOnUse" x="160" y="62" width="8" height="9">
<path fill-rule="evenodd" clip-rule="evenodd" d="M160.13 64.6188C162.206 65.7245 163.878 68.3975 163.872 70.5995V70.5995L167.354 68.7322C167.36 66.5302 165.688 63.8572 163.612 62.7515V62.7515" fill="white"/>
</mask>
<g mask="url(#mask25_41_9)">
<path fill-rule="evenodd" clip-rule="evenodd" d="M163.578 68.8815L167.06 67.0142C167.093 67.1117 167.123 67.2114 167.15 67.311L163.669 69.1784C163.641 69.0787 163.611 68.9812 163.578 68.8815" fill="#19232C"/>
</g>
<mask id="mask26_41_9" style="mask-type:alpha" maskUnits="userSpaceOnUse" x="160" y="62" width="8" height="9">
<path fill-rule="evenodd" clip-rule="evenodd" d="M160.13 64.6188C162.206 65.7245 163.878 68.3975 163.872 70.5995V70.5995L167.354 68.7322C167.36 66.5302 165.688 63.8572 163.612 62.7515V62.7515" fill="white"/>
</mask>
<g mask="url(#mask26_41_9)">
<path fill-rule="evenodd" clip-rule="evenodd" d="M163.668 69.1787L167.149 67.3114C167.18 67.4184 167.206 67.5254 167.23 67.6324L163.748 69.5008C163.725 69.3938 163.697 69.2868 163.668 69.1787" fill="#18222B"/>
</g>
<mask id="mask27_41_9" style="mask-type:alpha" maskUnits="userSpaceOnUse" x="160" y="62" width="8" height="9">
<path fill-rule="evenodd" clip-rule="evenodd" d="M160.13 64.6188C162.206 65.7245 163.878 68.3975 163.872 70.5995V70.5995L167.354 68.7322C167.36 66.5302 165.688 63.8572 163.612 62.7515V62.7515" fill="white"/>
</mask>
<g mask="url(#mask27_41_9)">
<path fill-rule="evenodd" clip-rule="evenodd" d="M163.748 69.5003L167.23 67.633C167.256 67.7536 167.279 67.8732 167.297 67.9939L163.816 69.8623C163.796 69.7416 163.775 69.621 163.748 69.5003" fill="#182029"/>
</g>
<path fill-rule="evenodd" clip-rule="evenodd" d="M160.13 64.6188C162.206 65.7245 163.878 68.3975 163.872 70.5995V70.5995L167.354 68.7322C167.36 66.5302 165.688 63.8572 163.612 62.7515V62.7515" fill="#250F8A"/>
<mask id="mask28_41_9" style="mask-type:alpha" maskUnits="userSpaceOnUse" x="160" y="62" width="8" height="9">
<path fill-rule="evenodd" clip-rule="evenodd" d="M160.13 64.6188C162.206 65.7245 163.878 68.3975 163.872 70.5995V70.5995L167.354 68.7322C167.36 66.5302 165.688 63.8572 163.612 62.7515V62.7515" fill="white"/>
</mask>
<g mask="url(#mask28_41_9)">
<path fill-rule="evenodd" clip-rule="evenodd" d="M163.815 69.8619L167.297 67.9946C167.319 68.1435 167.335 68.2925 167.345 68.4415L163.863 70.3088C163.854 70.1609 163.838 70.0119 163.815 69.8619" fill="#250F8A"/>
</g>
<path fill-rule="evenodd" clip-rule="evenodd" d="M163.863 70.3084L167.345 68.4411C167.351 68.5387 167.353 68.6352 167.353 68.7317L163.872 70.599C163.872 70.5046 163.869 70.406 163.863 70.3084" fill="#250F8A"/>
<path fill-rule="evenodd" clip-rule="evenodd" d="M159.909 65.1882C162.037 66.2828 163.75 68.9301 163.743 71.1091L163.591 119.136C163.584 121.315 161.859 122.191 159.732 121.097L68.6499 74.2072C66.5231 73.1125 64.8086 70.4641 64.8156 68.2852L64.9682 20.2583C64.9751 18.0805 66.7013 17.2029 68.8281 18.2986L159.909 65.1882Z" fill="#0AD7DD"/>
<path fill-rule="evenodd" clip-rule="evenodd" d="M159.348 68.9416L71.6178 23.777L71.4967 67.3993L159.209 112.547L159.348 68.9416ZM102.95 51.0804L102.973 43.854L154.753 70.51L154.729 77.7364L102.95 51.0804ZM75.472 36.9349L75.4953 29.7085L98.2393 41.4164L98.2171 48.6439L98.1205 78.8249L75.3753 67.1139L75.472 36.9349ZM102.853 81.2593L102.95 51.0804L154.729 77.7364L154.633 107.916L102.853 81.2593Z" fill="white"/>
<path fill-rule="evenodd" clip-rule="evenodd" d="M117.929 95.4437L110.475 91.6072L110.469 93.514L117.923 97.3515L117.929 95.4437Z" fill="#250F8A"/>
<path fill-rule="evenodd" clip-rule="evenodd" d="M98.2389 41.4165L75.4949 29.7086L75.4728 36.935L98.2168 48.6439L98.2389 41.4165ZM92.732 44.2943L92.746 40.1078L96.8319 42.212L96.8179 46.3974L92.732 44.2943ZM87.2053 41.4496L87.2181 37.2621L91.304 39.3652L91.2912 43.5527L87.2053 41.4496ZM81.6774 38.6028L81.6902 34.4163L85.7761 36.5194L85.7633 40.7059L81.6774 38.6028Z" fill="#FA7564"/>
<path fill-rule="evenodd" clip-rule="evenodd" d="M98.2166 48.6439L75.4727 36.935L75.376 67.1139L98.12 78.8249L98.2166 48.6439ZM76.7318 48.0603L76.7539 41.0114L96.8027 51.3338L96.7806 58.3806L76.7318 48.0603ZM76.677 65.1238L76.684 63.3157L96.7316 73.636L96.7258 75.4452L76.677 65.1238Z" fill="#E5FDFD"/>
<path fill-rule="evenodd" clip-rule="evenodd" d="M154.729 77.7363L102.949 51.0802L102.852 81.2602L154.632 107.917L154.729 77.7363ZM104.364 62.2841L104.386 55.2374L153.283 80.4093L153.26 87.4571L104.364 62.2841ZM104.351 65.9026L104.357 64.0934L153.255 89.2664L153.249 91.0745L104.351 65.9026ZM104.341 69.5252L104.347 67.717L153.243 92.8889L153.237 94.6981L104.341 69.5252ZM104.312 78.4496L104.334 71.3997L153.231 96.5727L153.209 103.62L104.312 78.4496Z" fill="#E5FDFD"/>
<path fill-rule="evenodd" clip-rule="evenodd" d="M154.752 70.5099L102.972 43.8538L102.949 51.0802L154.729 77.7363L154.752 70.5099ZM149.212 73.3709L149.226 69.1844L153.312 71.2875L153.299 75.474L149.212 73.3709ZM143.685 70.5254L143.698 66.3389L147.784 68.443L147.77 72.6285L143.685 70.5254ZM138.157 67.6794L138.17 63.4919L142.256 65.5961L142.242 69.7826L138.157 67.6794Z" fill="#FA7564"/>
<path fill-rule="evenodd" clip-rule="evenodd" d="M153.312 71.2874L149.226 69.1843L149.212 73.3708L153.299 75.474L153.312 71.2874Z" fill="#FFCA00"/>
<path fill-rule="evenodd" clip-rule="evenodd" d="M147.784 68.4429L143.698 66.3398L143.684 70.5253L147.77 72.6284L147.784 68.4429Z" fill="white"/>
<path fill-rule="evenodd" clip-rule="evenodd" d="M142.255 65.5957L138.169 63.4926L138.157 67.6801L142.242 69.7822L142.255 65.5957Z" fill="white"/>
<path fill-rule="evenodd" clip-rule="evenodd" d="M96.8319 42.2116L92.746 40.1085L92.732 44.295L96.8179 46.397L96.8319 42.2116Z" fill="#FFCA00"/>
<path fill-rule="evenodd" clip-rule="evenodd" d="M91.3045 39.3655L87.2186 37.2624L87.2046 41.4499L91.2905 43.552L91.3045 39.3655Z" fill="white"/>
<path fill-rule="evenodd" clip-rule="evenodd" d="M85.7765 36.5197L81.6894 34.4166L81.6766 38.6031L85.7625 40.7062L85.7765 36.5197Z" fill="white"/>
<path fill-rule="evenodd" clip-rule="evenodd" d="M96.8029 51.3337L76.7541 41.0123L76.732 48.0611L96.7796 58.3804L96.8029 51.3337Z" fill="white"/>
<path fill-rule="evenodd" clip-rule="evenodd" d="M153.283 80.4096L104.387 55.2376L104.364 62.2843L153.26 87.4573L153.283 80.4096Z" fill="white"/>
<path fill-rule="evenodd" clip-rule="evenodd" d="M153.232 96.5724L104.334 71.4005L104.312 78.4493L153.208 103.62L153.232 96.5724Z" fill="white"/>
<path fill-rule="evenodd" clip-rule="evenodd" d="M96.7317 73.6365L76.6841 63.3152L76.6771 65.1244L96.7259 75.4447L96.7317 73.6365Z" fill="#FFCA00"/>
<path fill-rule="evenodd" clip-rule="evenodd" d="M153.254 89.2659L104.358 64.094L104.351 65.9032L153.249 91.0741L153.254 89.2659Z" fill="#FFCA00"/>
<path fill-rule="evenodd" clip-rule="evenodd" d="M153.242 92.8888L104.346 67.7168L104.341 69.525L153.238 94.698L153.242 92.8888Z" fill="#FFCA00"/>
<path fill-rule="evenodd" clip-rule="evenodd" d="M71.5352 67.2554L69.2555 68.252L69.3998 22.3956L71.6562 23.5597L71.5352 67.2554Z" fill="#172029"/>
<path fill-rule="evenodd" clip-rule="evenodd" d="M159.169 112.48L159.162 114.657L69.2549 68.2518L71.5346 67.2551L159.169 112.48Z" fill="#263442"/>
</svg>
